<svg version="1.0" xmlns="http://www.w3.org/2000/svg" width="24" height="24" viewBox="0 0 24 24" preserveAspectRatio="xMidYMid meet">
  <metadata>
    <rdf:RDF xmlns:rdf="http://www.w3.org/1999/02/22-rdf-syntax-ns#" xmlns:rdfs="http://www.w3.org/2000/01/rdf-schema#" xmlns:dc="http://purl.org/dc/elements/1.1/">
      <rdf:Description dc:format="image/svg+xml" dc:Label="1" dc:ContentProducer="001191330110MACRLGPT8B00000" dc:ProduceID="420145267" dc:ReservedCode1="GG7jJxHjp3t3pHi0Db3mvYitP+4VIycgm+BkTENLC/Y=" dc:ContentPropagator="001191330110MACRLGPT8B00000" dc:PropagateID="420145267" dc:ReservedCode2="GG7jJxHjp3t3pHi0Db3mvYitP+4VIycgm+BkTENLC/Y="/>
    </rdf:RDF>
  </metadata>
  <g transform="translate(12, 12) scale(0.045) translate(-387, -381)">
    <g transform="translate(0.000000,800.000000) scale(0.100000,-0.100000)" fill="#000000" stroke="none">
    <path d="M5300 5529 c-74 -3 -272 -13 -440 -22 -756 -42 -1231 -46 -1656 -12 -170 13 -271 14 -660 6 -412 -8 -467 -11 -536 -29 -123 -33 -200 -78 -242 -143 -82 -123 -87 -279 -29 -854 13 -136 15 -242 9 -705 -4 -357 -3 -573 4 -625 13 -100 47 -172 106 -224 66 -58 117 -71 275 -73 336 -5 872 4 1059 17 416 29 674 38 873 32 111 -4 357 -11 547 -17 190 -6 423 -17 518 -25 197 -17 412 -19 522 -5 145 19 249 78 305 173 41 72 47 150 44 567 -5 579 -2 895 11 1100 23 393 23 388 2 494 -41 198 -114 285 -272 329 -63 18 -243 25 -440 16z m-2070 -332 c149 -14 1221 -16 1855 -4 550 12 570 9 600 -97 22 -77 30 -1403 11 -1676 -15 -205 -21 -234 -53 -263 -33 -29 -194 -38 -473 -27 -645 26 -948 40 -1090 51 -187 14 -646 5 -900 -17 -138 -12 -256 -14 -560 -9 -230 4 -411 3 -450 -3 -73 -11 -96 -4 -110 33 -16 42 -30 291 -35 620 -3 176 -13 457 -21 625 -19 358 -16 630 6 674 37 73 77 81 440 97 146 6 267 13 270 16 8 8 367 -6 510 -20z"/>
    <path d="M4225 4903 c-30 -7 -63 -42 -70 -74 -9 -38 25 -108 71 -148 19 -17 34 -33 34 -36 0 -3 -161 -2 -357 1 -434 7 -672 -4 -738 -36 -74 -36 -81 -110 -13 -147 30 -17 76 -18 586 -21 303 -1 552 -6 552 -10 0 -4 -13 -15 -29 -25 -38 -22 -89 -81 -97 -112 -9 -37 3 -74 36 -106 42 -43 102 -41 166 6 27 20 80 56 117 81 178 119 231 212 177 312 -41 78 -154 180 -294 266 -73 45 -107 56 -141 49z"/>
    <path d="M3420 4094 c-103 -28 -365 -191 -414 -257 -14 -19 -21 -44 -21 -72 0 -38 6 -50 40 -85 37 -38 259 -182 352 -229 89 -44 173 -14 173 62 0 47 -29 80 -100 116 -33 16 -57 31 -53 34 5 2 58 0 118 -5 163 -13 930 -4 979 11 61 20 96 61 96 112 0 35 -6 47 -35 75 -20 18 -52 37 -73 41 -68 15 -414 7 -672 -14 -362 -31 -420 -34 -420 -23 0 5 17 18 38 29 117 61 161 134 115 189 -25 29 -59 34 -123 16z"/>
      </g>
  </g>
</svg>